<svg width="35" height="35" viewBox="0 0 35 35" fill="none" xmlns="http://www.w3.org/2000/svg">
<path d="M13.6719 3.5H21.3281C21.6289 3.5 21.875 3.7625 21.875 4.08333V7H13.125V4.08333C13.125 3.7625 13.3711 3.5 13.6719 3.5ZM9.84375 4.08333V7H4.375C1.96191 7 0 9.09271 0 11.6667V18.6667H35V11.6667C35 9.09271 33.0381 7 30.625 7H25.1562V4.08333C25.1562 1.83021 23.4404 0 21.3281 0H13.6719C11.5596 0 9.84375 1.83021 9.84375 4.08333ZM35 22.1667H21.875V23.3333C21.875 24.624 20.8975 25.6667 19.6875 25.6667H15.3125C14.1025 25.6667 13.125 24.624 13.125 23.3333V22.1667H0V30.3333C0 32.9073 1.96191 35 4.375 35H30.625C33.0381 35 35 32.9073 35 30.3333V22.1667Z" fill="#D56E0C"/>
</svg>
