<svg width="21" height="30" viewBox="0 0 21 30" fill="none" xmlns="http://www.w3.org/2000/svg">
<g clip-path="url(#clip0_32752_38607)">
<mask id="mask0_32752_38607" style="mask-type:luminance" maskUnits="userSpaceOnUse" x="2" y="6" width="17" height="17">
<path d="M2.44922 6.2959H18.4492V22.2959H2.44922V6.2959Z" fill="white"/>
</mask>
<g mask="url(#mask0_32752_38607)">
<path d="M18.4492 14.2956C18.449 12.7668 18.0107 11.2701 17.1863 9.98269C16.3618 8.69525 15.1858 7.671 13.7973 7.03118C12.4088 6.39137 10.8661 6.16279 9.35179 6.37251C7.83745 6.58223 6.41492 7.22146 5.25259 8.21453C4.09026 9.20759 3.23681 10.5129 2.79329 11.9759C2.34976 13.439 2.33473 14.9985 2.74997 16.4698C3.16521 17.9411 3.99333 19.2626 5.13629 20.2779C6.27926 21.2932 7.68921 21.9597 9.19922 22.1986V16.6086H7.16922V14.2946H9.19922V12.5326C9.19922 10.5276 10.3942 9.42062 12.2212 9.42062C13.0962 9.42062 14.0112 9.57662 14.0112 9.57662V11.5456H13.0032C12.0092 11.5456 11.6992 12.1616 11.6992 12.7956V14.2956H13.9182L13.5632 16.6076H11.6992V22.1976C13.5808 21.8996 15.2943 20.94 16.5316 19.4915C17.7689 18.043 18.4489 16.2006 18.4492 14.2956Z" fill="#9297A0"/>
<path d="M13.562 16.6079L13.917 14.2959H11.698V12.7959C11.698 12.1629 12.008 11.5459 13.002 11.5459H14.011V9.5769C14.011 9.5769 13.095 9.4209 12.22 9.4209C10.393 9.4199 9.19797 10.5279 9.19797 12.5329V14.2959H7.16797V16.6079H9.19797V22.1979C10.027 22.3279 10.87 22.3279 11.698 22.1979V16.6079H13.562Z" fill="white"/>
</g>
</g>
<defs>
<clipPath id="clip0_32752_38607">
<rect width="17" height="17" fill="white" transform="translate(2 6)"/>
</clipPath>
</defs>
</svg>
