<svg width="16" height="16" viewBox="0 0 16 16" fill="none" xmlns="http://www.w3.org/2000/svg">
<path d="M1.7007 11.6335C1.6007 11.5335 1.55348 11.4169 1.55903 11.2835C1.56459 11.1502 1.61181 11.0335 1.7007 10.9335L5.8507 6.78353C5.90625 6.72797 5.96181 6.68908 6.01737 6.66686C6.07292 6.64464 6.13403 6.63353 6.2007 6.63353C6.26737 6.63353 6.32848 6.64464 6.38403 6.66686C6.43959 6.68908 6.49514 6.72797 6.5507 6.78353L8.98403 9.21686L13.0007 5.2002H11.384C11.2396 5.2002 11.1201 5.15297 11.0257 5.05853C10.9313 4.96408 10.884 4.84464 10.884 4.7002C10.884 4.55575 10.9313 4.43631 11.0257 4.34186C11.1201 4.24742 11.2396 4.2002 11.384 4.2002H14.1674C14.3118 4.2002 14.4313 4.24742 14.5257 4.34186C14.6201 4.43631 14.6674 4.55575 14.6674 4.7002V7.48353C14.6674 7.61686 14.6201 7.73353 14.5257 7.83353C14.4313 7.93353 14.3174 7.98353 14.184 7.98353C14.0507 7.98353 13.934 7.93353 13.834 7.83353C13.734 7.73353 13.684 7.61686 13.684 7.48353V5.93353L9.31737 10.3002C9.26181 10.3558 9.20625 10.3946 9.1507 10.4169C9.09514 10.4391 9.03403 10.4502 8.96737 10.4502C8.9007 10.4502 8.83959 10.4391 8.78403 10.4169C8.72848 10.3946 8.67292 10.3558 8.61737 10.3002L6.18403 7.86686L2.4007 11.6502C2.31181 11.7391 2.19792 11.7835 2.05903 11.7835C1.92014 11.7835 1.8007 11.7335 1.7007 11.6335Z" fill="#0080FF"/>
</svg>
