<svg width="18" height="14" viewBox="0 0 18 14" fill="none" xmlns="http://www.w3.org/2000/svg">
<path d="M2.25 0C1.00898 0 0 1.04635 0 2.33333V11.6667C0 12.9536 1.00898 14 2.25 14H15.75C16.991 14 18 12.9536 18 11.6667V2.33333C18 1.04635 16.991 0 15.75 0H2.25ZM9 3.5C10.8633 3.5 12.375 5.06771 12.375 7C12.375 8.93229 10.8633 10.5 9 10.5C7.13672 10.5 5.625 8.93229 5.625 7C5.625 5.06771 7.13672 3.5 9 3.5ZM15.75 4.375C15.75 4.53542 15.6234 4.67031 15.4688 4.64844C14.4492 4.51719 13.6441 3.67865 13.5176 2.625C13.5 2.46458 13.6266 2.33333 13.7812 2.33333H15.4688C15.6234 2.33333 15.75 2.46458 15.75 2.625V4.375ZM2.25 9.625C2.25 9.46458 2.37656 9.32969 2.53125 9.35156C3.55078 9.48281 4.35586 10.3214 4.48242 11.375C4.5 11.5354 4.37344 11.6667 4.21875 11.6667H2.53125C2.37656 11.6667 2.25 11.5354 2.25 11.375V9.625ZM2.53125 4.64844C2.37656 4.66667 2.25 4.53542 2.25 4.375V2.625C2.25 2.46458 2.37656 2.33333 2.53125 2.33333H4.21875C4.37344 2.33333 4.50352 2.46458 4.48242 2.625C4.35586 3.68229 3.54727 4.51719 2.53125 4.64844ZM15.4688 9.35156C15.6234 9.33333 15.75 9.46458 15.75 9.625V11.375C15.75 11.5354 15.6234 11.6667 15.4688 11.6667H13.7812C13.6266 11.6667 13.4965 11.5354 13.5176 11.375C13.6441 10.3177 14.4527 9.48281 15.4688 9.35156Z" fill="#1A2C3A"/>
</svg>
