<svg width="20" height="21" viewBox="0 0 20 21" fill="none" xmlns="http://www.w3.org/2000/svg">
<g clip-path="url(#clip0_32752_38617)">
<path d="M14 2.2959H6C3.79086 2.2959 2 4.08676 2 6.2959V14.2959C2 16.505 3.79086 18.2959 6 18.2959H14C16.2091 18.2959 18 16.505 18 14.2959V6.2959C18 4.08676 16.2091 2.2959 14 2.2959Z" fill="white"/>
<path d="M15.633 15.9289H13.263V12.2159C13.263 11.3309 13.247 10.1909 12.029 10.1909C10.795 10.1909 10.606 11.1559 10.606 12.1509V15.9289H8.235V8.29394H10.51V9.33694H10.542C10.77 8.94785 11.0991 8.62776 11.4944 8.41067C11.8896 8.19357 12.3363 8.08758 12.787 8.10394C15.19 8.10394 15.633 9.68394 15.633 11.7409V15.9289ZM5.56 7.24994C5.19563 7.2481 4.84671 7.10254 4.58905 6.84489C4.3314 6.58724 4.18584 6.23831 4.184 5.87394C4.184 5.11994 4.804 4.49794 5.56 4.49794C6.314 4.49794 6.935 5.11894 6.935 5.87394C6.935 6.62894 6.315 7.24994 5.56 7.24994ZM6.745 15.9289H4.372V8.29394H6.745V15.9289ZM16.815 2.29694H3.181C2.87195 2.29479 2.57454 2.41469 2.3534 2.63059C2.13226 2.84649 2.00526 3.14093 2 3.44994V17.1409C2.008 17.7809 2.54 18.3029 3.18 18.2959H16.815C17.125 18.2984 17.4234 18.1783 17.6454 17.9618C17.8673 17.7453 17.9947 17.4499 18 17.1399V3.44994C17.9945 3.14023 17.8669 2.84522 17.645 2.62911C17.423 2.413 17.1248 2.29426 16.815 2.29694Z" fill="#9297A0"/>
</g>
<defs>
<clipPath id="clip0_32752_38617">
<rect width="16" height="17" fill="white" transform="translate(2 2)"/>
</clipPath>
</defs>
</svg>
