<svg width="20" height="18" viewBox="0 0 20 18" fill="none" xmlns="http://www.w3.org/2000/svg">
<path d="M13.3339 5.49955C13.3339 8.5368 10.348 10.9991 6.66776 10.9991C5.74075 10.9991 4.85888 10.8429 4.05686 10.5616L1.22376 11.9115C0.900868 12.0646 0.505067 12.0115 0.244671 11.7803C-0.0157239 11.5491 -0.0747468 11.1897 0.0988501 10.8991L1.33486 8.79928C0.498123 7.88061 0.00163581 6.73695 0.00163581 5.49955C0.00163581 2.4623 2.9875 0 6.66776 0C10.348 0 13.3339 2.4623 13.3339 5.49955ZM13.3339 16.9986C10.0668 16.9986 7.34826 15.0581 6.77886 12.499C10.9452 12.4521 14.5664 9.78358 14.9657 6.16512C17.8578 6.76507 20 8.92427 20 11.4991C20 12.7365 19.5035 13.8801 18.6668 14.7988L19.9028 16.8986C20.0729 17.1892 20.0139 17.5454 19.757 17.7798C19.5 18.0142 19.1008 18.0673 18.7779 17.911L15.9448 16.5611C15.1428 16.8424 14.2609 16.9986 13.3339 16.9986Z" fill="#047043"/>
</svg>
