<svg width="27" height="30" viewBox="0 0 27 30" fill="none" xmlns="http://www.w3.org/2000/svg">
<path d="M13.5 14.2857C9.19687 14.2857 5.71154 11.0893 5.71154 7.14286C5.71154 3.19643 9.19687 0 13.5 0C17.8031 0 21.2885 3.19643 21.2885 7.14286C21.2885 11.0893 17.8031 14.2857 13.5 14.2857ZM11.5204 17.619H15.4796C16.1091 17.619 16.6154 18.0833 16.6154 18.6607C16.6154 18.9107 16.518 19.1488 16.3428 19.3393L14.5644 21.244L16.5764 28.0952H16.6154L18.8611 19.8512C19.0038 19.3333 19.5815 19.0179 20.1267 19.2083C24.1442 20.6131 27 24.1845 27 28.3631C27 29.2619 26.2017 29.994 25.2216 29.994L1.77837 30C0.798317 30 0 29.2679 0 28.369C0 24.1905 2.85577 20.619 6.87332 19.2143C7.41851 19.0238 7.99615 19.3393 8.13894 19.8571L10.3846 28.1012H10.4236L12.4356 21.25L10.6572 19.3452C10.482 19.1548 10.3846 18.9167 10.3846 18.6667C10.3846 18.0893 10.8909 17.625 11.5204 17.625V17.619Z" fill="#353DF0"/>
</svg>
