<svg width="318" height="71" viewBox="0 0 318 71" fill="none" xmlns="http://www.w3.org/2000/svg">
<rect y="6" width="253" height="60" rx="30" fill="#FEF7E0"/>
<path d="M86.1094 27.8672V31.3047H74.1953V27.8672H86.1094ZM77.6328 22.6914H82.3398V43.1602C82.3398 43.8112 82.431 44.3125 82.6133 44.6641C82.8086 45.0026 83.0755 45.2305 83.4141 45.3477C83.7526 45.4648 84.1497 45.5234 84.6055 45.5234C84.931 45.5234 85.2435 45.5039 85.543 45.4648C85.8424 45.4258 86.0833 45.3867 86.2656 45.3477L86.2852 48.9414C85.8945 49.0586 85.4388 49.1628 84.918 49.2539C84.4102 49.3451 83.8242 49.3906 83.1602 49.3906C82.0794 49.3906 81.1224 49.2018 80.2891 48.8242C79.4557 48.4336 78.8047 47.8021 78.3359 46.9297C77.8672 46.0573 77.6328 44.8984 77.6328 43.4531V22.6914ZM94.4688 31.8906V49H89.7617V27.8672H94.2539L94.4688 31.8906ZM100.934 27.7305L100.895 32.1055C100.608 32.0534 100.296 32.0143 99.957 31.9883C99.6315 31.9622 99.306 31.9492 98.9805 31.9492C98.1732 31.9492 97.4635 32.0664 96.8516 32.3008C96.2396 32.5221 95.7253 32.8477 95.3086 33.2773C94.9049 33.694 94.5924 34.2018 94.3711 34.8008C94.1497 35.3997 94.0195 36.0703 93.9805 36.8125L92.9062 36.8906C92.9062 35.5625 93.0365 34.332 93.2969 33.1992C93.5573 32.0664 93.9479 31.0703 94.4688 30.2109C95.0026 29.3516 95.6667 28.681 96.4609 28.1992C97.2682 27.7174 98.1992 27.4766 99.2539 27.4766C99.5404 27.4766 99.8464 27.5026 100.172 27.5547C100.51 27.6068 100.764 27.6654 100.934 27.7305ZM115.094 44.7617V34.6836C115.094 33.9284 114.957 33.2773 114.684 32.7305C114.41 32.1836 113.993 31.7604 113.434 31.4609C112.887 31.1615 112.197 31.0117 111.363 31.0117C110.595 31.0117 109.931 31.1419 109.371 31.4023C108.811 31.6628 108.375 32.0143 108.062 32.457C107.75 32.8997 107.594 33.401 107.594 33.9609H102.906C102.906 33.1276 103.108 32.3203 103.512 31.5391C103.915 30.7578 104.501 30.0612 105.27 29.4492C106.038 28.8372 106.956 28.3555 108.023 28.0039C109.091 27.6523 110.289 27.4766 111.617 27.4766C113.206 27.4766 114.612 27.7435 115.836 28.2773C117.073 28.8112 118.043 29.6185 118.746 30.6992C119.462 31.7669 119.82 33.1081 119.82 34.7227V44.1172C119.82 45.0807 119.885 45.9466 120.016 46.7148C120.159 47.4701 120.361 48.1276 120.621 48.6875V49H115.797C115.576 48.4922 115.4 47.8477 115.27 47.0664C115.152 46.2721 115.094 45.5039 115.094 44.7617ZM115.777 36.1484L115.816 39.0586H112.438C111.565 39.0586 110.797 39.1432 110.133 39.3125C109.469 39.4688 108.915 39.7031 108.473 40.0156C108.03 40.3281 107.698 40.7057 107.477 41.1484C107.255 41.5911 107.145 42.0924 107.145 42.6523C107.145 43.2122 107.275 43.7266 107.535 44.1953C107.796 44.651 108.173 45.0091 108.668 45.2695C109.176 45.5299 109.788 45.6602 110.504 45.6602C111.467 45.6602 112.307 45.4648 113.023 45.0742C113.753 44.6706 114.326 44.1823 114.742 43.6094C115.159 43.0234 115.38 42.4701 115.406 41.9492L116.93 44.0391C116.773 44.5729 116.507 45.1458 116.129 45.7578C115.751 46.3698 115.257 46.9557 114.645 47.5156C114.046 48.0625 113.323 48.5117 112.477 48.8633C111.643 49.2148 110.68 49.3906 109.586 49.3906C108.206 49.3906 106.975 49.1172 105.895 48.5703C104.814 48.0104 103.967 47.2617 103.355 46.3242C102.743 45.3737 102.438 44.2995 102.438 43.1016C102.438 41.9818 102.646 40.9922 103.062 40.1328C103.492 39.2604 104.117 38.5312 104.938 37.9453C105.771 37.3594 106.786 36.9167 107.984 36.6172C109.182 36.3047 110.549 36.1484 112.086 36.1484H115.777ZM124.762 19H129.469V44.4883L129.02 49H124.762V19ZM143.258 38.2383V38.6484C143.258 40.2109 143.082 41.6497 142.73 42.9648C142.392 44.2669 141.871 45.3997 141.168 46.3633C140.478 47.3268 139.618 48.0755 138.59 48.6094C137.574 49.1302 136.396 49.3906 135.055 49.3906C133.74 49.3906 132.594 49.1432 131.617 48.6484C130.641 48.1536 129.82 47.4505 129.156 46.5391C128.505 45.6276 127.978 44.5404 127.574 43.2773C127.171 42.0143 126.884 40.6211 126.715 39.0977V37.7891C126.884 36.2526 127.171 34.8594 127.574 33.6094C127.978 32.3464 128.505 31.2591 129.156 30.3477C129.82 29.4232 130.634 28.7135 131.598 28.2188C132.574 27.724 133.714 27.4766 135.016 27.4766C136.37 27.4766 137.561 27.737 138.59 28.2578C139.632 28.7786 140.497 29.5208 141.188 30.4844C141.878 31.4349 142.392 32.5677 142.73 33.8828C143.082 35.1979 143.258 36.6497 143.258 38.2383ZM138.551 38.6484V38.2383C138.551 37.2878 138.473 36.3958 138.316 35.5625C138.16 34.7161 137.9 33.974 137.535 33.3359C137.184 32.6979 136.702 32.1966 136.09 31.832C135.491 31.4544 134.742 31.2656 133.844 31.2656C133.01 31.2656 132.294 31.4089 131.695 31.6953C131.096 31.9818 130.595 32.3724 130.191 32.8672C129.788 33.362 129.469 33.9349 129.234 34.5859C129.013 35.237 128.863 35.9401 128.785 36.6953V40.2305C128.902 41.207 129.15 42.1055 129.527 42.9258C129.918 43.7331 130.465 44.3841 131.168 44.8789C131.871 45.3607 132.776 45.6016 133.883 45.6016C134.755 45.6016 135.491 45.4258 136.09 45.0742C136.689 44.7227 137.164 44.2344 137.516 43.6094C137.88 42.9714 138.141 42.2292 138.297 41.3828C138.466 40.5365 138.551 39.625 138.551 38.6484ZM159.156 44.7617V34.6836C159.156 33.9284 159.02 33.2773 158.746 32.7305C158.473 32.1836 158.056 31.7604 157.496 31.4609C156.949 31.1615 156.259 31.0117 155.426 31.0117C154.658 31.0117 153.993 31.1419 153.434 31.4023C152.874 31.6628 152.438 32.0143 152.125 32.457C151.812 32.8997 151.656 33.401 151.656 33.9609H146.969C146.969 33.1276 147.171 32.3203 147.574 31.5391C147.978 30.7578 148.564 30.0612 149.332 29.4492C150.1 28.8372 151.018 28.3555 152.086 28.0039C153.154 27.6523 154.352 27.4766 155.68 27.4766C157.268 27.4766 158.674 27.7435 159.898 28.2773C161.135 28.8112 162.105 29.6185 162.809 30.6992C163.525 31.7669 163.883 33.1081 163.883 34.7227V44.1172C163.883 45.0807 163.948 45.9466 164.078 46.7148C164.221 47.4701 164.423 48.1276 164.684 48.6875V49H159.859C159.638 48.4922 159.462 47.8477 159.332 47.0664C159.215 46.2721 159.156 45.5039 159.156 44.7617ZM159.84 36.1484L159.879 39.0586H156.5C155.628 39.0586 154.859 39.1432 154.195 39.3125C153.531 39.4688 152.978 39.7031 152.535 40.0156C152.092 40.3281 151.76 40.7057 151.539 41.1484C151.318 41.5911 151.207 42.0924 151.207 42.6523C151.207 43.2122 151.337 43.7266 151.598 44.1953C151.858 44.651 152.236 45.0091 152.73 45.2695C153.238 45.5299 153.85 45.6602 154.566 45.6602C155.53 45.6602 156.37 45.4648 157.086 45.0742C157.815 44.6706 158.388 44.1823 158.805 43.6094C159.221 43.0234 159.443 42.4701 159.469 41.9492L160.992 44.0391C160.836 44.5729 160.569 45.1458 160.191 45.7578C159.814 46.3698 159.319 46.9557 158.707 47.5156C158.108 48.0625 157.385 48.5117 156.539 48.8633C155.706 49.2148 154.742 49.3906 153.648 49.3906C152.268 49.3906 151.038 49.1172 149.957 48.5703C148.876 48.0104 148.03 47.2617 147.418 46.3242C146.806 45.3737 146.5 44.2995 146.5 43.1016C146.5 41.9818 146.708 40.9922 147.125 40.1328C147.555 39.2604 148.18 38.5312 149 37.9453C149.833 37.3594 150.849 36.9167 152.047 36.6172C153.245 36.3047 154.612 36.1484 156.148 36.1484H159.84ZM169.039 27.8672H173.766V50.8359C173.766 52.2812 173.518 53.4987 173.023 54.4883C172.529 55.4909 171.799 56.2461 170.836 56.7539C169.872 57.2747 168.694 57.5352 167.301 57.5352C166.884 57.5352 166.454 57.5026 166.012 57.4375C165.556 57.3854 165.126 57.3073 164.723 57.2031L164.742 53.5312C165.016 53.5833 165.309 53.6224 165.621 53.6484C165.921 53.6875 166.207 53.707 166.48 53.707C167.04 53.707 167.509 53.6094 167.887 53.4141C168.264 53.2188 168.551 52.9128 168.746 52.4961C168.941 52.0794 169.039 51.526 169.039 50.8359V27.8672ZM168.629 22.3203C168.629 21.6042 168.87 21.0117 169.352 20.543C169.833 20.0612 170.491 19.8203 171.324 19.8203C172.171 19.8203 172.828 20.0612 173.297 20.543C173.779 21.0117 174.02 21.6042 174.02 22.3203C174.02 23.0234 173.779 23.6094 173.297 24.0781C172.828 24.5469 172.171 24.7812 171.324 24.7812C170.491 24.7812 169.833 24.5469 169.352 24.0781C168.87 23.6094 168.629 23.0234 168.629 22.3203ZM190.758 44.7617V34.6836C190.758 33.9284 190.621 33.2773 190.348 32.7305C190.074 32.1836 189.658 31.7604 189.098 31.4609C188.551 31.1615 187.861 31.0117 187.027 31.0117C186.259 31.0117 185.595 31.1419 185.035 31.4023C184.475 31.6628 184.039 32.0143 183.727 32.457C183.414 32.8997 183.258 33.401 183.258 33.9609H178.57C178.57 33.1276 178.772 32.3203 179.176 31.5391C179.579 30.7578 180.165 30.0612 180.934 29.4492C181.702 28.8372 182.62 28.3555 183.688 28.0039C184.755 27.6523 185.953 27.4766 187.281 27.4766C188.87 27.4766 190.276 27.7435 191.5 28.2773C192.737 28.8112 193.707 29.6185 194.41 30.6992C195.126 31.7669 195.484 33.1081 195.484 34.7227V44.1172C195.484 45.0807 195.549 45.9466 195.68 46.7148C195.823 47.4701 196.025 48.1276 196.285 48.6875V49H191.461C191.24 48.4922 191.064 47.8477 190.934 47.0664C190.816 46.2721 190.758 45.5039 190.758 44.7617ZM191.441 36.1484L191.48 39.0586H188.102C187.229 39.0586 186.461 39.1432 185.797 39.3125C185.133 39.4688 184.579 39.7031 184.137 40.0156C183.694 40.3281 183.362 40.7057 183.141 41.1484C182.919 41.5911 182.809 42.0924 182.809 42.6523C182.809 43.2122 182.939 43.7266 183.199 44.1953C183.46 44.651 183.837 45.0091 184.332 45.2695C184.84 45.5299 185.452 45.6602 186.168 45.6602C187.132 45.6602 187.971 45.4648 188.688 45.0742C189.417 44.6706 189.99 44.1823 190.406 43.6094C190.823 43.0234 191.044 42.4701 191.07 41.9492L192.594 44.0391C192.438 44.5729 192.171 45.1458 191.793 45.7578C191.415 46.3698 190.921 46.9557 190.309 47.5156C189.71 48.0625 188.987 48.5117 188.141 48.8633C187.307 49.2148 186.344 49.3906 185.25 49.3906C183.87 49.3906 182.639 49.1172 181.559 48.5703C180.478 48.0104 179.632 47.2617 179.02 46.3242C178.408 45.3737 178.102 44.2995 178.102 43.1016C178.102 41.9818 178.31 40.9922 178.727 40.1328C179.156 39.2604 179.781 38.5312 180.602 37.9453C181.435 37.3594 182.451 36.9167 183.648 36.6172C184.846 36.3047 186.214 36.1484 187.75 36.1484H191.441ZM212.262 43.2773C212.262 42.8086 212.145 42.3854 211.91 42.0078C211.676 41.6172 211.227 41.2656 210.562 40.9531C209.911 40.6406 208.948 40.3542 207.672 40.0938C206.552 39.8464 205.523 39.5534 204.586 39.2148C203.661 38.8633 202.867 38.4401 202.203 37.9453C201.539 37.4505 201.025 36.8646 200.66 36.1875C200.296 35.5104 200.113 34.7292 200.113 33.8438C200.113 32.9844 200.302 32.1706 200.68 31.4023C201.057 30.6341 201.598 29.957 202.301 29.3711C203.004 28.7852 203.857 28.3229 204.859 27.9844C205.875 27.6458 207.008 27.4766 208.258 27.4766C210.029 27.4766 211.546 27.776 212.809 28.375C214.085 28.9609 215.061 29.7617 215.738 30.7773C216.415 31.7799 216.754 32.9128 216.754 34.1758H212.047C212.047 33.6159 211.904 33.0951 211.617 32.6133C211.344 32.1185 210.927 31.7214 210.367 31.4219C209.807 31.1094 209.104 30.9531 208.258 30.9531C207.451 30.9531 206.78 31.0833 206.246 31.3438C205.725 31.5911 205.335 31.9167 205.074 32.3203C204.827 32.724 204.703 33.1667 204.703 33.6484C204.703 34 204.768 34.319 204.898 34.6055C205.042 34.8789 205.276 35.1328 205.602 35.3672C205.927 35.5885 206.37 35.7969 206.93 35.9922C207.503 36.1875 208.219 36.3763 209.078 36.5586C210.693 36.8971 212.079 37.3333 213.238 37.8672C214.41 38.388 215.309 39.0651 215.934 39.8984C216.559 40.7188 216.871 41.7604 216.871 43.0234C216.871 43.9609 216.669 44.8203 216.266 45.6016C215.875 46.3698 215.302 47.0404 214.547 47.6133C213.792 48.1732 212.887 48.6094 211.832 48.9219C210.79 49.2344 209.618 49.3906 208.316 49.3906C206.402 49.3906 204.781 49.0521 203.453 48.375C202.125 47.6849 201.116 46.806 200.426 45.7383C199.749 44.6576 199.41 43.5378 199.41 42.3789H203.961C204.013 43.2513 204.254 43.9479 204.684 44.4688C205.126 44.9766 205.673 45.3477 206.324 45.582C206.988 45.8034 207.672 45.9141 208.375 45.9141C209.221 45.9141 209.931 45.8034 210.504 45.582C211.077 45.3477 211.513 45.0352 211.812 44.6445C212.112 44.2409 212.262 43.7852 212.262 43.2773Z" fill="#D56E0C"/>
</svg>
