<svg width="30" height="30" viewBox="0 0 30 30" fill="none" xmlns="http://www.w3.org/2000/svg">
<path d="M12.943 2.50232L10.864 3.32861C10.6985 3.39307 10.5882 3.56302 10.5882 3.75055C10.5882 3.93808 10.6985 4.10802 10.864 4.17249L12.943 4.99878L13.7206 7.20809C13.7813 7.38389 13.9412 7.5011 14.1176 7.5011C14.2941 7.5011 14.454 7.38389 14.5147 7.20809L15.2923 4.99878L17.3713 4.17249C17.5368 4.10802 17.6471 3.93808 17.6471 3.75055C17.6471 3.56302 17.5368 3.39307 17.3713 3.32861L15.2923 2.50232L14.5147 0.293012C14.454 0.117205 14.2941 0 14.1176 0C13.9412 0 13.7813 0.117205 13.7206 0.293012L12.943 2.50232ZM2.54228 23.1714C1.51103 24.2672 1.51103 26.0487 2.54228 27.1505L4.45037 29.1781C5.48162 30.274 7.15809 30.274 8.19485 29.1781L29.2224 6.82717C30.2537 5.73131 30.2537 3.9498 29.2224 2.84807L27.3143 0.826293C26.2831 -0.269571 24.6066 -0.269571 23.5699 0.826293L2.54228 23.1714ZM26.7243 4.84055L20.9338 10.9938L19.6489 9.62836L25.4393 3.47512L26.7243 4.84055ZM0.413603 6.86819C0.165441 6.96782 0 7.21981 0 7.5011C0 7.78239 0.165441 8.03438 0.413603 8.134L3.52941 9.37637L4.69853 12.6874C4.79228 12.9511 5.02941 13.1269 5.29412 13.1269C5.55882 13.1269 5.79596 12.9511 5.88971 12.6874L7.05882 9.37637L10.1746 8.134C10.4228 8.03438 10.5882 7.78239 10.5882 7.5011C10.5882 7.21981 10.4228 6.96782 10.1746 6.86819L7.05882 5.62582L5.88971 2.31479C5.79596 2.05108 5.55882 1.87527 5.29412 1.87527C5.02941 1.87527 4.79228 2.05108 4.69853 2.31479L3.52941 5.62582L0.413603 6.86819ZM19.8254 21.8704C19.5772 21.97 19.4118 22.222 19.4118 22.5033C19.4118 22.7846 19.5772 23.0366 19.8254 23.1362L22.9412 24.3786L24.1103 27.6896C24.204 27.9533 24.4412 28.1291 24.7059 28.1291C24.9706 28.1291 25.2077 27.9533 25.3015 27.6896L26.4706 24.3786L29.5864 23.1362C29.8346 23.0366 30 22.7846 30 22.5033C30 22.222 29.8346 21.97 29.5864 21.8704L26.4706 20.628L25.3015 17.317C25.2077 17.0533 24.9706 16.8775 24.7059 16.8775C24.4412 16.8775 24.204 17.0533 24.1103 17.317L22.9412 20.628L19.8254 21.8704Z" fill="#7839C7"/>
<path d="M12.943 2.50232L10.864 3.32861C10.6985 3.39307 10.5882 3.56302 10.5882 3.75055C10.5882 3.93808 10.6985 4.10802 10.864 4.17249L12.943 4.99878L13.7206 7.20809C13.7813 7.38389 13.9412 7.5011 14.1176 7.5011C14.2941 7.5011 14.454 7.38389 14.5147 7.20809L15.2923 4.99878L17.3713 4.17249C17.5368 4.10802 17.6471 3.93808 17.6471 3.75055C17.6471 3.56302 17.5368 3.39307 17.3713 3.32861L15.2923 2.50232L14.5147 0.293012C14.454 0.117205 14.2941 0 14.1176 0C13.9412 0 13.7813 0.117205 13.7206 0.293012L12.943 2.50232ZM2.54228 23.1714C1.51103 24.2672 1.51103 26.0487 2.54228 27.1505L4.45037 29.1781C5.48162 30.274 7.15809 30.274 8.19485 29.1781L29.2224 6.82717C30.2537 5.73131 30.2537 3.9498 29.2224 2.84807L27.3143 0.826293C26.2831 -0.269571 24.6066 -0.269571 23.5699 0.826293L2.54228 23.1714ZM26.7243 4.84055L20.9338 10.9938L19.6489 9.62836L25.4393 3.47512L26.7243 4.84055ZM0.413603 6.86819C0.165441 6.96782 0 7.21981 0 7.5011C0 7.78239 0.165441 8.03438 0.413603 8.134L3.52941 9.37637L4.69853 12.6874C4.79228 12.9511 5.02941 13.1269 5.29412 13.1269C5.55882 13.1269 5.79596 12.9511 5.88971 12.6874L7.05882 9.37637L10.1746 8.134C10.4228 8.03438 10.5882 7.78239 10.5882 7.5011C10.5882 7.21981 10.4228 6.96782 10.1746 6.86819L7.05882 5.62582L5.88971 2.31479C5.79596 2.05108 5.55882 1.87527 5.29412 1.87527C5.02941 1.87527 4.79228 2.05108 4.69853 2.31479L3.52941 5.62582L0.413603 6.86819ZM19.8254 21.8704C19.5772 21.97 19.4118 22.222 19.4118 22.5033C19.4118 22.7846 19.5772 23.0366 19.8254 23.1362L22.9412 24.3786L24.1103 27.6896C24.204 27.9533 24.4412 28.1291 24.7059 28.1291C24.9706 28.1291 25.2077 27.9533 25.3015 27.6896L26.4706 24.3786L29.5864 23.1362C29.8346 23.0366 30 22.7846 30 22.5033C30 22.222 29.8346 21.97 29.5864 21.8704L26.4706 20.628L25.3015 17.317C25.2077 17.0533 24.9706 16.8775 24.7059 16.8775C24.4412 16.8775 24.204 17.0533 24.1103 17.317L22.9412 20.628L19.8254 21.8704Z" fill="#ECB7B7" fill-opacity="0.2"/>
</svg>
