<svg width="9" height="9" viewBox="0 0 9 9" fill="none" xmlns="http://www.w3.org/2000/svg">
<g clip-path="url(#clip0_32665_39723)">
<path d="M4.5 9C5.69347 9 6.83807 8.52589 7.68198 7.68198C8.52589 6.83807 9 5.69347 9 4.5C9 3.30653 8.52589 2.16193 7.68198 1.31802C6.83807 0.474106 5.69347 0 4.5 0C3.30653 0 2.16193 0.474106 1.31802 1.31802C0.474106 2.16193 0 3.30653 0 4.5C0 5.69347 0.474106 6.83807 1.31802 7.68198C2.16193 8.52589 3.30653 9 4.5 9ZM3.79688 5.90625H4.21875V4.78125H3.79688C3.56309 4.78125 3.375 4.59316 3.375 4.35938C3.375 4.12559 3.56309 3.9375 3.79688 3.9375H4.64062C4.87441 3.9375 5.0625 4.12559 5.0625 4.35938V5.90625H5.20312C5.43691 5.90625 5.625 6.09434 5.625 6.32812C5.625 6.56191 5.43691 6.75 5.20312 6.75H3.79688C3.56309 6.75 3.375 6.56191 3.375 6.32812C3.375 6.09434 3.56309 5.90625 3.79688 5.90625ZM4.5 2.25C4.64918 2.25 4.79226 2.30926 4.89775 2.41475C5.00324 2.52024 5.0625 2.66332 5.0625 2.8125C5.0625 2.96168 5.00324 3.10476 4.89775 3.21025C4.79226 3.31574 4.64918 3.375 4.5 3.375C4.35082 3.375 4.20774 3.31574 4.10225 3.21025C3.99676 3.10476 3.9375 2.96168 3.9375 2.8125C3.9375 2.66332 3.99676 2.52024 4.10225 2.41475C4.20774 2.30926 4.35082 2.25 4.5 2.25Z" fill="black"/>
</g>
<defs>
<clipPath id="clip0_32665_39723">
<rect width="9" height="9" fill="white"/>
</clipPath>
</defs>
</svg>
