<svg width="17" height="17" viewBox="0 0 17 17" fill="none" xmlns="http://www.w3.org/2000/svg">
<g clip-path="url(#clip0_32752_38623)">
<mask id="mask0_32752_38623" style="mask-type:luminance" maskUnits="userSpaceOnUse" x="0" y="0" width="17" height="17">
<path d="M0.449219 0.295898H16.4492V16.2959H0.449219V0.295898Z" fill="white"/>
</mask>
<g mask="url(#mask0_32752_38623)">
<path d="M8.44922 1.73597C10.5852 1.73597 10.8392 1.74397 11.6822 1.78297C12.4622 1.81797 12.8862 1.94797 13.1682 2.05797C13.5162 2.18597 13.8302 2.39097 14.0882 2.65597C14.3542 2.91497 14.5592 3.22897 14.6882 3.57697C14.7972 3.85897 14.9272 4.28297 14.9622 5.06297C15.0012 5.90697 15.0092 6.15897 15.0092 8.29597C15.0092 10.432 15.0012 10.685 14.9622 11.528C14.9272 12.308 14.7972 12.732 14.6872 13.014C14.554 13.3588 14.3501 13.672 14.0887 13.9334C13.8273 14.1949 13.5141 14.3987 13.1692 14.532C12.8872 14.642 12.4632 14.772 11.6832 14.808C10.8402 14.846 10.5872 14.854 8.45122 14.854C6.31422 14.854 6.06122 14.846 5.21822 14.808C4.43822 14.772 4.01422 14.642 3.73222 14.532C3.3847 14.4039 3.07032 14.1996 2.81222 13.934C2.54574 13.6758 2.34069 13.361 2.21222 13.013C2.10322 12.731 1.97222 12.307 1.93722 11.527C1.89922 10.683 1.89122 10.431 1.89122 8.29397C1.89122 6.15797 1.89922 5.90497 1.93722 5.06197C1.97322 4.28197 2.10322 3.85797 2.21322 3.57597C2.34122 3.22797 2.54522 2.91297 2.81122 2.65597C3.07022 2.38897 3.38422 2.18497 3.73222 2.05597C4.01422 1.94697 4.43822 1.81597 5.21822 1.78097C6.06222 1.74297 6.31422 1.73497 8.45122 1.73497L8.44922 1.73597ZM8.45122 0.292969C6.27822 0.292969 6.00522 0.302969 5.15222 0.340969C4.29922 0.380969 3.71822 0.516969 3.21022 0.713969C2.67612 0.914976 2.19222 1.22995 1.79222 1.63697C1.38522 2.03697 1.07022 2.52097 0.869219 3.05497C0.672219 3.56297 0.536219 4.14497 0.499219 4.99697C0.458219 5.84697 0.449219 6.12197 0.449219 8.29397C0.449219 10.467 0.459219 10.74 0.498219 11.593C0.537219 12.446 0.672219 13.026 0.869219 13.534C1.07022 14.068 1.38522 14.551 1.79222 14.951C2.19222 15.358 2.67522 15.673 3.21022 15.874C3.71822 16.072 4.30022 16.207 5.15122 16.246C6.00322 16.285 6.27722 16.294 8.45022 16.294C10.6232 16.294 10.8952 16.285 11.7482 16.246C12.6022 16.207 13.1812 16.072 13.6892 15.874C14.2208 15.6686 14.7036 15.3543 15.1066 14.9513C15.5096 14.5484 15.8238 14.0656 16.0292 13.534C16.2272 13.026 16.3622 12.444 16.4012 11.592C16.4402 10.741 16.4492 10.466 16.4492 8.29397C16.4492 6.12097 16.4402 5.84897 16.4012 4.99497C16.3612 4.14197 16.2272 3.56297 16.0292 3.05497C15.8286 2.52121 15.5139 2.03764 15.1072 1.63797C14.7073 1.23056 14.2234 0.91524 13.6892 0.713969C13.1812 0.516969 12.5992 0.380969 11.7472 0.342969C10.8962 0.302969 10.6222 0.293969 8.44922 0.293969L8.45122 0.292969Z" fill="#9297A0"/>
<path d="M8.44784 4.18843C7.35833 4.18843 6.31345 4.62124 5.54305 5.39163C4.77265 6.16203 4.33984 7.20692 4.33984 8.29643C4.33984 9.38594 4.77265 10.4308 5.54305 11.2012C6.31345 11.9716 7.35833 12.4044 8.44784 12.4044C9.53735 12.4044 10.5822 11.9716 11.3526 11.2012C12.123 10.4308 12.5558 9.38594 12.5558 8.29643C12.5558 7.20692 12.123 6.16203 11.3526 5.39163C10.5822 4.62124 9.53735 4.18843 8.44784 4.18843ZM8.44784 10.9634C8.0932 10.9703 7.74074 10.9064 7.41109 10.7754C7.08144 10.6444 6.78122 10.449 6.52798 10.2007C6.27475 9.95228 6.07358 9.6559 5.93625 9.32885C5.79893 9.0018 5.72819 8.65064 5.72819 8.29593C5.72819 7.94122 5.79893 7.59006 5.93625 7.26301C6.07358 6.93596 6.27475 6.63958 6.52798 6.3912C6.78122 6.14281 7.08144 5.94742 7.41109 5.81645C7.74074 5.68548 8.0932 5.62156 8.44784 5.62843C9.14637 5.64195 9.81171 5.92894 10.3009 6.42772C10.7901 6.9265 11.0642 7.59728 11.0642 8.29593C11.0642 8.99458 10.7901 9.66536 10.3009 10.1641C9.81171 10.6629 9.14637 10.9499 8.44784 10.9634ZM12.7178 4.98543C12.9725 4.98543 13.2166 4.88429 13.3967 4.70425C13.5767 4.52422 13.6778 4.28004 13.6778 4.02543C13.6778 3.77082 13.5767 3.52664 13.3967 3.34661C13.2166 3.16657 12.9725 3.06543 12.7178 3.06543C12.4632 3.06543 12.2191 3.16657 12.039 3.34661C11.859 3.52664 11.7578 3.77082 11.7578 4.02543C11.7578 4.28004 11.859 4.52422 12.039 4.70425C12.2191 4.88429 12.4632 4.98543 12.7178 4.98543Z" fill="#9297A0"/>
</g>
</g>
<defs>
<clipPath id="clip0_32752_38623">
<rect width="17" height="17" fill="white"/>
</clipPath>
</defs>
</svg>
